<svg width="587" height="553" viewBox="0 0 587 553" fill="none" xmlns="http://www.w3.org/2000/svg">
<g opacity="0.07">
<path d="M529.387 36.6512C469.929 -50.0937 370.11 -107 257 -107C74.746 -107 -73 40.7459 -73 223C-73 249.515 -69.8727 275.3 -63.9671 300.006L104.082 131.957C120.191 115.848 146.309 115.848 162.418 131.957L298.25 267.789L529.387 36.6512Z" fill="#8794BA"/>
<path d="M568.609 114.102L327.418 355.293C311.309 371.402 285.191 371.402 269.082 355.293L133.25 219.461L-31.186 383.897C25.2657 484.793 133.168 553 257 553C439.254 553 587 405.254 587 223C587 184.841 580.523 148.196 568.609 114.102Z" fill="#8794BA"/>
</g>
</svg>
