<svg width="1555" height="798" viewBox="0 0 1555 798" fill="none" xmlns="http://www.w3.org/2000/svg">
<mask id="mask0_737_1483" style="mask-type:alpha" maskUnits="userSpaceOnUse" x="-45" y="0" width="1600" height="799">
<path d="M-45 0.00012207H1555V587L-45 798V0.00012207Z" fill="#172755"/>
</mask>
<g mask="url(#mask0_737_1483)">
<g opacity="0.07">
<path d="M1581.47 205.986C1451.93 16.9869 1234.44 -107 988 -107C590.907 -107 269 214.907 269 612C269 669.771 275.814 725.95 288.681 779.779L654.824 413.636C689.922 378.538 746.828 378.538 781.926 413.636L1077.88 709.585L1581.47 205.986Z" fill="#8794BA"/>
<path d="M1666.93 374.734L1141.43 900.239C1106.33 935.337 1049.42 935.337 1014.32 900.239L718.375 604.29L360.104 962.562C483.1 1182.39 718.195 1331 988 1331C1385.09 1331 1707 1009.09 1707 612C1707 528.861 1692.89 449.017 1666.93 374.734Z" fill="#8794BA"/>
</g>
</g>
</svg>
